<svg xmlns="http://www.w3.org/2000/svg" width="29" height="29" viewBox="0 0 29 29"><defs><style>.a{fill:#2ade93;stroke:#2ade93;}.b,.d{fill:none;}.b{stroke:#fff;}.c{stroke:none;}</style></defs><g transform="translate(-669 -279)"><g class="a" transform="translate(669 279)"><circle class="c" cx="14.5" cy="14.5" r="14.5"/><circle class="d" cx="14.5" cy="14.5" r="14"/></g><path class="b" d="M4.882,9.879a.409.409,0,0,1-.3-.144L.124,4.653a.529.529,0,0,1,0-.686.405.405,0,0,1,.3-.14.4.4,0,0,1,.306.144l4.15,4.734,7.6-8.564a.4.4,0,0,1,.608,0,.514.514,0,0,1,.126.343.513.513,0,0,1-.126.343l-7.9,8.909a.4.4,0,0,1-.3.142Z" transform="translate(677.37 288.59)"/></g></svg>