<svg id="Warstwa_1" data-name="Warstwa 1" xmlns="http://www.w3.org/2000/svg" viewBox="0 0 800 748.27"><defs><style>.cls-1{fill:#2ade93;}</style></defs><title>Flowhub_Logo_Icon</title><path class="cls-1" d="M495.61,129.06L405.95,406.69a123,123,0,0,0,0,75.57L495.61,760a4.61,4.61,0,0,0,8.78,0l89.67-277.7a123,123,0,0,0,0-75.57L504.38,129.06A4.61,4.61,0,0,0,495.61,129.06Z" transform="translate(-100 -125.86)"/><path class="cls-1" d="M799,501.93l76.71-228.3a4.61,4.61,0,0,0-7.06-5.22L673,408.65A123,123,0,0,0,628,469.44l-76.71,228.3a4.61,4.61,0,0,0,7.06,5.22L754.11,562.71A123,123,0,0,0,799,501.93Z" transform="translate(-100 -125.86)"/><path class="cls-1" d="M664.29,657.28L535.46,750.84a4.61,4.61,0,0,0,2.72,8.34l159.23-.53a123,123,0,0,0,71.85-23.47l128.83-93.57a4.61,4.61,0,0,0-2.73-8.34l-159.23.53A123,123,0,0,0,664.29,657.28Z" transform="translate(-100 -125.86)"/><path class="cls-1" d="M263.87,633.81l-159.23-.53a4.61,4.61,0,0,0-2.72,8.34l128.83,93.57a123,123,0,0,0,71.85,23.47l159.22,0.53a4.61,4.61,0,0,0,2.72-8.34L335.71,657.28A123,123,0,0,0,263.87,633.81Z" transform="translate(-100 -125.86)"/><path class="cls-1" d="M350.79,873.93l67.59-20.36a30.74,30.74,0,0,0,15.54-10.75l42.91-56.06a4.61,4.61,0,0,0-5-7.22L404.25,799.9a30.74,30.74,0,0,0-15.54,10.75L345.8,866.71A4.61,4.61,0,0,0,350.79,873.93Z" transform="translate(-100 -125.86)"/><path class="cls-1" d="M523.17,786.76l42.91,56.06a30.74,30.74,0,0,0,15.54,10.75l67.59,20.36a4.61,4.61,0,0,0,5-7.22L611.3,810.65a30.74,30.74,0,0,0-15.54-10.75l-67.6-20.36A4.61,4.61,0,0,0,523.17,786.76Z" transform="translate(-100 -125.86)"/><path class="cls-1" d="M448.64,697.74l-76.71-228.3A123,123,0,0,0,327,408.65L131.27,268.41a4.61,4.61,0,0,0-7.06,5.22l76.72,228.31a123,123,0,0,0,44.93,60.78L441.59,703A4.61,4.61,0,0,0,448.64,697.74Z" transform="translate(-100 -125.86)"/><path class="cls-1" d="M674.22,862a11.33,11.33,0,0,1,11.67-11.77c6.85,0,11.63,4.89,11.63,11.7s-4.85,11.81-11.67,11.81S674.22,868.81,674.22,862Zm21.06,0c0-5.62-3.95-9.71-9.43-9.71s-9.4,4-9.4,9.68,3.91,9.71,9.43,9.71S695.28,867.62,695.28,862Zm-7.72,5-2.13-3h-1.26v2.69a1.33,1.33,0,0,1-1.43,1.5h-0.46c-0.91,0-1.4-.7-1.4-1.85v-8.66a1.6,1.6,0,0,1,1.71-1.82h3.74c3.32,0,5.1,1.29,5.1,3.95a3.47,3.47,0,0,1-2.86,3.6l2.79,3.67c0.14,0.21-.8,1.19-1.89,1.19A2.22,2.22,0,0,1,687.56,867Zm-3.46-5.45h2.06c1.29,0,2-.59,2-1.57s-0.7-1.61-2.06-1.61h-2v3.18Z" transform="translate(-100 -125.86)"/></svg>