<svg xmlns="http://www.w3.org/2000/svg" width="24" height="24" viewBox="0 0 24 24"><defs><style>.a{fill:none;}.b{fill:#665f79;}</style></defs><rect class="a" width="24" height="24"/><path class="b" d="M17.479,19.313a.57.57,0,0,1-.41-.175L12.81,14.8l-.3.207a7.893,7.893,0,0,1-4.463,1.38A8.13,8.13,0,0,1,0,8.2,8.13,8.13,0,0,1,8.044,0a8.13,8.13,0,0,1,8.045,8.2,8.258,8.258,0,0,1-2.107,5.522l-.274.306L17.89,18.28a.616.616,0,0,1,0,.86A.577.577,0,0,1,17.479,19.313ZM8.044,1.207A6.94,6.94,0,0,0,1.17,8.2a6.94,6.94,0,0,0,6.874,6.989A6.94,6.94,0,0,0,14.918,8.2,6.94,6.94,0,0,0,8.044,1.207Z" transform="translate(2.88 2.4)"/></svg>